<svg fill="rgb(239, 118, 34)" focusable="false" xmlns="http://www.w3.org/2000/svg" viewBox="0 0 15 15">
  &gt;
  <path stroke="none" d="M10.917 9.619v.372c0 .438-.107.846-.322 1.226-.215.38-.509.681-.884.901-.374.221-.78.331-1.217.331-.434 0-.841-.115-1.224-.345-.382-.231-.682-.542-.899-.934-.216-.392-.325-.805-.325-1.239V5.08c0-.244-.088-.469-.263-.674-.175-.205-.385-.307-.63-.307-.181 0-.341.042-.479.124-.137.082-.247.205-.331.369s-.123.307-.123.429v1.644c0 .209-.075.388-.225.538-.15.15-.329.225-.538.225-.205 0-.383-.076-.535-.227-.151-.153-.227-.331-.227-.536V5.003c0-.434.111-.843.334-1.226.223-.384.523-.685.901-.901.379-.217.786-.326 1.223-.326.434 0 .838.116 1.215.349.376.232.671.545.884.937.212.392.318.807.318 1.244v4.853c0 .26.091.487.275.68.183.193.399.29.647.29.205 0 .372-.047.503-.142.13-.095.229-.212.296-.352.067-.14.1-.279.1-.417V9.62h-1.43l2.181-3.753 2.163 3.753-1.388-.001z"></path>
</svg>