<svg fill="rgb(239, 118, 34)" focusable="false" xmlns="http://www.w3.org/2000/svg" viewBox="0 0 15 15">
  <path stroke="none" d="M14 14H1V1h13zm-8.862-3L4.89 9.364a.362.362 0 00-.1-.259A.321.321 0 004.548 9H2.576a.321.321 0 00-.243.1.361.361 0 00-.1.259L1.987 11zm1.949-3l-.249-1.652a.351.351 0 00-.094-.248.3.3 0 00-.232-.1H4.523a.328.328 0 00-.241.1.337.337 0 00-.1.246L3.931 8zm1.962-3L8.8 3.359a.354.354 0 00-.1-.251A.318.318 0 008.463 3h-2a.3.3 0 00-.232.107.372.372 0 00-.094.251L5.893 5zm0 6L8.8 9.364a.356.356 0 00-.1-.259A.321.321 0 008.46 9H6.471a.3.3 0 00-.231.1.373.373 0 00-.094.259L5.9 11zM11 8l-.25-1.652a.346.346 0 00-.1-.246.31.31 0 00-.234-.1H8.428a.318.318 0 00-.241.1.346.346 0 00-.1.246L7.837 8zm1.944 3l-.248-1.636a.361.361 0 00-.1-.259.321.321 0 00-.243-.1h-1.971a.321.321 0 00-.243.1.362.362 0 00-.1.259L9.792 11z"></path>
</svg>