<svg fill="rgb(81, 132, 40)" focusable="false" xmlns="http://www.w3.org/2000/svg" viewBox="0 0 15 15">
  <path stroke="none" d="M1 1h12.967v12.967H1zm11.9 3.766l-8.94-.838-.28-1.545H1.927a.448.448 0 00-.339.143.466.466 0 00-.136.333.488.488 0 00.475.475h.987l1.2 6.516a1.317 1.317 0 00-.783.457 1.3 1.3 0 00-.321.873 1.282 1.282 0 00.4.962 1.357 1.357 0 001.9-.006 1.288 1.288 0 00.4-.957 1.274 1.274 0 00-.065-.38h5.9a.445.445 0 00.333-.142.467.467 0 00.136-.333.474.474 0 00-.469-.476H5.063L4.748 8.14l7.687-.6zm-2.023 7.706a.715.715 0 10-.5-.208.677.677 0 00.498.208z"></path>
</svg>