<svg fill="rgb(239, 118, 34)" focusable="false" xmlns="http://www.w3.org/2000/svg" viewBox="0 0 15 15">
  <path stroke="none" d="M1 1.124h13v13H1zm12.153 8.754V8.331a1.812 1.812 0 00-.24-.929 1.313 1.313 0 00-.643-.576 3.573 3.573 0 00-.648-1.7 3.661 3.661 0 00-1.4-1.216A4.066 4.066 0 008.4 3.493a4.066 4.066 0 00-1.087.135 3.819 3.819 0 00-.948.411 3.52 3.52 0 00-.825.685 4.323 4.323 0 00-.624.93 3.469 3.469 0 00-.323.831 3.723 3.723 0 00-1.633.569 2.722 2.722 0 00-1.008 1.2 4 4 0 00-.327 1.627h.848a1.109 1.109 0 00.127.419 1.408 1.408 0 00.3.435 1.319 1.319 0 00.42.264 1.5 1.5 0 00.57.1 1.38 1.38 0 00.956-.332 1.469 1.469 0 00.463-.893h3.963a1.181 1.181 0 00.128.426 1.528 1.528 0 00.311.47 1.4 1.4 0 00.429.293 1.452 1.452 0 00.585.107 1.512 1.512 0 00.709-.17 1.388 1.388 0 00.53-.484 1.757 1.757 0 00.268-.634zM5.664 6.3a2.218 2.218 0 01.722-1.286 2.348 2.348 0 011.4-.615V6.3zm2.889-1.948l.1-.012h.1a2.341 2.341 0 011.526.56 2.249 2.249 0 01.819 1.4H8.553z"></path>
</svg>