<svg fill="rgb(31, 85, 165)" focusable="false" xmlns="http://www.w3.org/2000/svg" viewBox="0 0 15 15">
  <path stroke="none" d="M7.843 8.723a3.661 3.661 0 011.094 2.009 1.482 1.482 0 01-1.475 1.486 1.521 1.521 0 01-1.085-.439 1.377 1.377 0 01-.461-1.022 1.579 1.579 0 01.148-.625 5.9 5.9 0 01.366-.692c.145-.235.3-.467.464-.692l.448-.618zM14 1v13H1V1zm-2.874 7.788a6.306 6.306 0 00-1.079-3.454 10.8 10.8 0 00-3.059-3.026L7 2.457V2.7a4.4 4.4 0 01-.146 1.15 3.061 3.061 0 01-.407.922 3.686 3.686 0 01-.767.781 10.616 10.616 0 00-1.534 1.384 3.369 3.369 0 00-.761 2.2 3.205 3.205 0 00.547 1.754 4.021 4.021 0 001.478 1.363 3.931 3.931 0 001.917.511 3.65 3.65 0 001.932-.529 3.728 3.728 0 001.37-1.444 4.135 4.135 0 00.497-2.004z"></path>
</svg>