<svg fill="rgb(239, 118, 34)" focusable="false" xmlns="http://www.w3.org/2000/svg" viewBox="0 0 15 15">
  <path stroke="none" d="M8 9.041a1.125 1.125 0 11-1.125-1.125A1.127 1.127 0 018 9.041zm1.875-6.125A1.125 1.125 0 1011 4.041a1.127 1.127 0 00-1.125-1.125zM14 .833v13H1v-13zm-1 4h-1.157a2.125 2.125 0 10-3.937 0H4v4h.771a2.071 2.071 0 00-.021.208 2.108 2.108 0 00.157.792H3v-4H2v5h3.744a2.106 2.106 0 001.131.333c.049 0 .1-.011.143-.014a1.482 1.482 0 00-.018.181 1.5 1.5 0 102.908-.5H12v-1H8.843A2.108 2.108 0 009 9.041a2.071 2.071 0 00-.021-.208H13z"></path>
</svg>