<svg fill="rgb(81, 132, 40)" focusable="false" xmlns="http://www.w3.org/2000/svg" viewBox="0 0 15 15">
  <path stroke="none" d="M1 1v13h13V1zm7.574 11.691a.316.316 0 01-.068.2.283.283 0 01-.187.1l-1.558.3h-.048a.322.322 0 01-.2-.068.333.333 0 01-.119-.187v-.053a.318.318 0 01.068-.2.279.279 0 01.188-.107l1.623-.291a.283.283 0 01.19.071.357.357 0 01.113.185zm.41-1.011a.316.316 0 01-.068.2.283.283 0 01-.187.1l-2.408.439h-.048a.31.31 0 01-.2-.068.279.279 0 01-.1-.187v-.048a.319.319 0 01.065-.2.272.272 0 01.179-.1l2.407-.439h.048a.31.31 0 01.2.068.34.34 0 01.116.188zm1.254-4.405a9.42 9.42 0 00-1.051 1.91 5.181 5.181 0 00-.321 1.777H6.089a5.127 5.127 0 00-.324-1.78 9.728 9.728 0 00-1.049-1.907A3.147 3.147 0 014.139 5.4a3.34 3.34 0 013.34-3.337A3.337 3.337 0 0110.815 5.4a3.252 3.252 0 01-.577 1.875z"></path>
</svg>