<svg width="457" height="248" viewBox="0 0 457 248" fill="none" xmlns="http://www.w3.org/2000/svg">
  <g clipPath="url(#clip0)">
    <path d="M229.966 247.999C353.886 247.999 454.342 241.362 454.342 233.175C454.342 224.988 353.886 218.352 229.966 218.352C106.047 218.352 5.59058 224.988 5.59058 233.175C5.59058 241.362 106.047 247.999 229.966 247.999Z" fill="#F2F2F2" />
    <path d="M221.367 70.8945C184.81 70.8945 158.562 94.3006 158.562 148.915C158.562 210.811 184.81 227.195 221.367 227.195C257.924 227.195 285.735 209.251 285.735 148.915C285.735 84.4181 257.924 70.8945 221.367 70.8945ZM221.607 206.65C196.287 206.65 183.059 191.825 183.059 148.955C183.059 111.128 196.828 91.1798 222.148 91.1798C247.469 91.1798 261.238 104.283 261.238 148.955C261.238 190.745 246.927 206.65 221.607 206.65Z" fill="#2F2E41" />
    <path d="M136.672 184.023H121.557V139.605C121.557 137.246 120.618 134.983 118.947 133.315C117.275 131.647 115.008 130.709 112.644 130.709H109.102C107.931 130.709 106.772 130.94 105.691 131.387C104.609 131.834 103.627 132.489 102.799 133.315C101.971 134.141 101.315 135.122 100.867 136.201C100.419 137.28 100.188 138.437 100.188 139.605V184.023H57.5547C56.6776 184.023 55.8154 183.797 55.0518 183.367C54.2882 182.936 53.649 182.316 53.1963 181.566C52.7436 180.817 52.4927 179.963 52.468 179.088C52.4433 178.213 52.6457 177.347 53.0554 176.573L98.1783 91.3435C98.7409 90.2809 99.0818 89.1156 99.1806 87.9179C99.2795 86.7201 99.1341 85.5148 98.7532 84.3747C98.3724 83.2346 97.764 82.1834 96.9648 81.2844C96.1656 80.3854 95.1921 79.6573 94.1032 79.1442L91.4395 77.8889C89.3712 76.9142 87.0065 76.7702 84.8348 77.4869C82.6631 78.2035 80.8506 79.7259 79.7723 81.739L24.739 184.479C23.8018 186.229 23.3115 188.182 23.3115 190.166C23.3115 191.75 23.6242 193.318 24.2316 194.782C24.839 196.245 25.7293 197.575 26.8517 198.695C27.9741 199.815 29.3065 200.704 30.7729 201.31C32.2394 201.916 33.8111 202.228 35.3984 202.228H100.188V230.315C100.188 231.716 100.465 233.102 101.002 234.396C101.538 235.689 102.326 236.865 103.318 237.855C104.31 238.845 105.488 239.631 106.784 240.166C108.08 240.702 109.47 240.978 110.873 240.978H110.873C112.276 240.978 113.665 240.702 114.962 240.166C116.258 239.631 117.436 238.845 118.428 237.855C119.42 236.865 120.207 235.689 120.744 234.396C121.281 233.102 121.557 231.716 121.557 230.315V202.228H136.672C139.091 202.228 141.411 201.269 143.122 199.562C144.832 197.855 145.793 195.54 145.793 193.126C145.793 190.712 144.832 188.396 143.122 186.689C141.411 184.982 139.091 184.023 136.672 184.023Z" fill="#1A75FF" />
    <path d="M416.555 184.023H401.441V139.605C401.441 137.246 400.502 134.983 398.83 133.315C397.158 131.647 394.891 130.709 392.527 130.709H388.985C387.815 130.709 386.656 130.94 385.574 131.387C384.493 131.834 383.51 132.489 382.682 133.315C381.855 134.141 381.198 135.122 380.75 136.201C380.302 137.28 380.072 138.437 380.072 139.605V184.023H337.438C336.561 184.023 335.699 183.797 334.935 183.367C334.171 182.936 333.532 182.316 333.08 181.566C332.627 180.817 332.376 179.963 332.351 179.088C332.327 178.213 332.529 177.347 332.939 176.573L378.062 91.3435C378.624 90.281 378.965 89.1156 379.064 87.9179C379.163 86.7201 379.017 85.5148 378.637 84.3747C378.256 83.2346 377.647 82.1834 376.848 81.2844C376.049 80.3854 375.075 79.6573 373.987 79.1442L371.323 77.8889C369.254 76.9142 366.89 76.7702 364.718 77.4869C362.546 78.2035 360.734 79.7259 359.656 81.739L304.622 184.479C303.685 186.229 303.195 188.182 303.195 190.166C303.195 193.365 304.468 196.433 306.735 198.695C309.002 200.957 312.076 202.228 315.282 202.228H380.072V230.315C380.072 233.143 381.197 235.855 383.201 237.855C385.205 239.855 387.922 240.978 390.756 240.978C393.59 240.978 396.307 239.855 398.311 237.855C400.315 235.855 401.441 233.143 401.441 230.315V202.228H416.555C418.974 202.228 421.294 201.269 423.005 199.562C424.715 197.855 425.676 195.54 425.676 193.126C425.676 190.712 424.715 188.396 423.005 186.689C421.294 184.982 418.974 184.023 416.555 184.023Z" fill="#1A75FF" />
    <path d="M140.842 178.822H125.727V134.404C125.727 133.236 125.496 132.079 125.048 131C124.6 129.92 123.944 128.94 123.116 128.114C122.288 127.288 121.306 126.632 120.224 126.185C119.143 125.738 117.984 125.508 116.813 125.508H113.271C110.907 125.508 108.64 126.446 106.968 128.114C105.297 129.782 104.358 132.045 104.358 134.404V178.822H61.7241C60.847 178.822 59.9849 178.596 59.2212 178.165C58.4576 177.735 57.8184 177.115 57.3657 176.365C56.913 175.615 56.6621 174.762 56.6375 173.887C56.6128 173.012 56.8151 172.145 57.2248 171.372L102.348 86.1424C102.91 85.0798 103.251 83.9145 103.35 82.7167C103.449 81.519 103.303 80.3137 102.923 79.1736C102.542 78.0335 101.933 76.9822 101.134 76.0832C100.335 75.1842 99.3616 74.4562 98.2726 73.943L95.6089 72.6877C93.5406 71.713 91.1759 71.5691 89.0042 72.2857C86.8326 73.0024 85.02 74.5247 83.9417 76.5378L28.9084 179.278C27.9712 181.028 27.481 182.981 27.481 184.965V184.965C27.481 188.164 28.7544 191.232 31.0211 193.494C33.2878 195.756 36.3622 197.027 39.5678 197.027H104.358V225.114C104.358 226.514 104.634 227.901 105.171 229.195C105.708 230.488 106.495 231.664 107.487 232.654C108.479 233.644 109.657 234.429 110.953 234.965C112.25 235.501 113.639 235.777 115.042 235.777H115.042C117.876 235.777 120.594 234.654 122.597 232.654C124.601 230.654 125.727 227.942 125.727 225.114V197.027H140.842C142.039 197.027 143.225 196.791 144.332 196.334C145.439 195.877 146.444 195.206 147.291 194.361C148.138 193.516 148.81 192.512 149.268 191.408C149.727 190.304 149.962 189.12 149.962 187.925V187.925C149.962 186.729 149.727 185.546 149.268 184.441C148.81 183.337 148.138 182.333 147.291 181.488C146.444 180.643 145.439 179.972 144.332 179.515C143.225 179.058 142.039 178.822 140.842 178.822V178.822Z" stroke="#3F3D56" strokeMiterlimit="10" />
    <path d="M424.373 178.822H409.259V134.404C409.259 132.045 408.319 129.782 406.648 128.114C404.976 126.446 402.709 125.508 400.345 125.508H396.803C395.633 125.508 394.473 125.738 393.392 126.185C392.311 126.632 391.328 127.288 390.5 128.114C389.672 128.94 389.016 129.92 388.568 131C388.12 132.079 387.889 133.236 387.889 134.404V178.822H345.256C344.379 178.822 343.517 178.596 342.753 178.165C341.989 177.735 341.35 177.115 340.897 176.365C340.445 175.615 340.194 174.762 340.169 173.887C340.145 173.012 340.347 172.145 340.757 171.372L385.879 86.1424C386.442 85.0798 386.783 83.9145 386.882 82.7167C386.981 81.519 386.835 80.3137 386.454 79.1736C386.074 78.0335 385.465 76.9822 384.666 76.0832C383.867 75.1842 382.893 74.4562 381.804 73.943L379.141 72.6877C377.072 71.713 374.708 71.5691 372.536 72.2857C370.364 73.0024 368.552 74.5247 367.473 76.5378L312.44 179.278C311.503 181.028 311.013 182.981 311.013 184.965C311.013 188.164 312.286 191.232 314.553 193.494C316.82 195.756 319.894 197.027 323.1 197.027H387.889V225.114C387.889 227.942 389.015 230.654 391.019 232.654C393.023 234.654 395.74 235.777 398.574 235.777V235.777C401.408 235.777 404.125 234.654 406.129 232.654C408.133 230.654 409.258 227.942 409.258 225.114V197.027H424.373C425.571 197.027 426.757 196.791 427.864 196.334C428.97 195.877 429.976 195.206 430.823 194.361C431.67 193.516 432.342 192.512 432.8 191.408C433.258 190.304 433.494 189.12 433.494 187.925V187.925C433.494 185.51 432.533 183.195 430.823 181.488C429.112 179.781 426.792 178.822 424.373 178.822V178.822Z" stroke="#3F3D56" strokeMiterlimit="10" />
    <path d="M229.706 66.2129C193.149 66.2129 166.901 89.619 166.901 144.233C166.901 206.129 193.149 222.514 229.706 222.514C266.263 222.514 294.074 204.569 294.074 144.233C294.074 79.7364 266.263 66.2129 229.706 66.2129ZM229.946 201.968C204.626 201.968 191.398 187.144 191.398 144.273C191.398 106.446 205.167 86.4982 230.488 86.4982C255.808 86.4982 269.577 99.6012 269.577 144.273C269.577 186.063 255.266 201.968 229.946 201.968V201.968Z" stroke="#3F3D56" strokeMiterlimit="10" />
    <path d="M428.276 178.095C429.565 178.562 430.945 178.725 432.307 178.569C433.669 178.414 434.976 177.945 436.126 177.199C437.275 176.453 438.236 175.451 438.931 174.272C439.626 173.093 440.037 171.769 440.132 170.404C440.227 169.039 440.003 167.67 439.478 166.407C438.953 165.143 438.141 164.018 437.105 163.121C436.07 162.224 434.84 161.579 433.513 161.237C432.185 160.895 430.796 160.866 429.455 161.151L429.677 165.698L427.521 161.801C425.405 162.794 423.771 164.583 422.977 166.778C422.695 167.546 422.523 168.351 422.467 169.167C422.331 171.083 422.825 172.991 423.873 174.602C424.921 176.213 426.467 177.439 428.276 178.095Z" fill="#57B894" />
    <path d="M438.943 230.835C438.182 226.968 441.48 223.539 444.737 221.311C447.994 219.082 451.8 216.893 452.911 213.111C454.509 207.676 449.751 202.698 446.048 198.406C443.301 195.221 440.941 191.721 439.019 187.982C438.249 186.482 437.541 184.915 437.338 183.242C437.046 180.833 437.822 178.435 438.603 176.137C441.206 168.482 443.989 160.89 446.952 153.363" stroke="#3F3D56" strokeMiterlimit="10" />
    <path d="M428.641 176.923C429.93 177.39 431.309 177.553 432.671 177.397C434.034 177.242 435.341 176.773 436.49 176.027C437.64 175.281 438.6 174.28 439.296 173.1C439.991 171.921 440.402 170.597 440.497 169.232C440.592 167.867 440.368 166.499 439.843 165.235C439.317 163.971 438.505 162.846 437.47 161.949C436.435 161.052 435.205 160.407 433.877 160.065C432.55 159.723 431.161 159.694 429.82 159.979L430.042 164.527L427.886 160.63C425.77 161.622 424.136 163.411 423.341 165.606C423.059 166.374 422.888 167.179 422.832 167.995C422.696 169.911 423.19 171.819 424.238 173.43C425.286 175.041 426.832 176.267 428.641 176.923V176.923Z" stroke="#3F3D56" strokeMiterlimit="10" />
    <path d="M437.861 151.792C438.367 150.4 439.216 149.157 440.329 148.178C441.443 147.199 442.785 146.515 444.233 146.19L444.962 150.513L446.313 145.973C448.19 146 450.008 146.623 451.507 147.749C453.006 148.876 454.108 150.449 454.652 152.241C455.197 154.033 455.157 155.951 454.538 157.719C453.919 159.487 452.753 161.013 451.209 162.076C449.664 163.14 447.821 163.686 445.945 163.636C444.069 163.586 442.258 162.942 440.773 161.798C439.287 160.653 438.205 159.067 437.682 157.269C437.158 155.47 437.221 153.553 437.861 151.792H437.861Z" fill="#57B894" />
    <path d="M438.347 150.232C438.853 148.839 439.702 147.596 440.815 146.617C441.929 145.638 443.271 144.955 444.719 144.629L445.448 148.952L446.799 144.412C448.676 144.44 450.495 145.062 451.993 146.189C453.492 147.315 454.594 148.888 455.138 150.68C455.683 152.472 455.643 154.391 455.024 156.159C454.405 157.926 453.239 159.452 451.695 160.516C450.15 161.579 448.307 162.125 446.431 162.075C444.555 162.025 442.744 161.381 441.259 160.237C439.773 159.093 438.691 157.507 438.168 155.708C437.644 153.91 437.707 151.992 438.347 150.232H438.347Z" stroke="#3F3D56" strokeMiterlimit="10" />
    <path d="M444.494 198.494C446.537 199.234 448.782 199.197 450.8 198.391C452.819 197.586 454.469 196.067 455.437 194.125C456.406 192.182 456.624 189.952 456.051 187.86C455.477 185.767 454.152 183.959 452.329 182.778L451.29 186.267L450.554 181.893C450.547 181.89 450.539 181.887 450.531 181.885C449.438 181.488 448.278 181.311 447.116 181.362C445.954 181.414 444.814 181.693 443.76 182.184C442.707 182.675 441.761 183.369 440.976 184.225C440.191 185.082 439.583 186.084 439.186 187.175C438.79 188.266 438.612 189.424 438.664 190.584C438.717 191.743 438.997 192.881 439.49 193.932C439.983 194.983 440.679 195.927 441.537 196.71C442.396 197.493 443.4 198.099 444.494 198.494H444.494Z" fill="#57B894" />
    <path d="M444.915 196.912C446.959 197.652 449.204 197.615 451.222 196.809C453.24 196.004 454.891 194.485 455.859 192.543C456.827 190.6 457.045 188.37 456.472 186.278C455.899 184.185 454.574 182.377 452.75 181.196L451.712 184.685L450.975 180.311C450.968 180.308 450.96 180.305 450.953 180.303C449.86 179.906 448.699 179.729 447.537 179.78C446.376 179.831 445.235 180.111 444.182 180.602C443.128 181.093 442.182 181.787 441.397 182.643C440.612 183.5 440.004 184.502 439.608 185.593C439.211 186.684 439.034 187.842 439.086 189.002C439.138 190.161 439.418 191.299 439.911 192.35C440.404 193.401 441.1 194.345 441.959 195.128C442.817 195.911 443.822 196.517 444.915 196.912H444.915Z" stroke="#3F3D56" strokeMiterlimit="10" />
    <path d="M435.278 213.165C435.629 215.16 436.657 216.974 438.19 218.303C439.722 219.631 441.666 220.393 443.694 220.462C445.723 220.53 447.714 219.9 449.332 218.677C450.951 217.454 452.099 215.714 452.584 213.747C453.069 211.78 452.862 209.706 451.996 207.873C451.131 206.041 449.661 204.561 447.832 203.682C446.003 202.802 443.927 202.577 441.952 203.045C439.977 203.512 438.223 204.642 436.984 206.247L440.928 212.171L435.539 209.027C435.121 210.365 435.031 211.785 435.278 213.165Z" fill="#57B894" />
    <path d="M435.642 211.993C435.994 213.988 437.022 215.802 438.554 217.131C440.087 218.459 442.03 219.222 444.059 219.29C446.088 219.358 448.078 218.728 449.697 217.505C451.315 216.283 452.463 214.542 452.948 212.575C453.433 210.608 453.226 208.534 452.361 206.701C451.496 204.869 450.025 203.389 448.197 202.51C446.368 201.631 444.292 201.406 442.317 201.873C440.341 202.34 438.587 203.47 437.348 205.075L441.292 210.999L435.903 207.855C435.485 209.194 435.396 210.613 435.642 211.993V211.993Z" stroke="#3F3D56" strokeMiterlimit="10" />
    <path d="M3.83132 199.615C4.6779 199.922 5.5844 200.029 6.47936 199.927C7.37433 199.825 8.23329 199.517 8.98855 199.027C9.7438 198.537 10.3747 197.879 10.8315 197.104C11.2884 196.329 11.5586 195.459 11.621 194.562C11.6834 193.665 11.5363 192.766 11.1911 191.936C10.846 191.106 10.3123 190.367 9.63213 189.777C8.95197 189.188 8.14393 188.764 7.2717 188.54C6.39947 188.315 5.48689 188.296 4.60589 188.483L4.75148 191.471L3.33509 188.91C1.94499 189.562 0.871085 190.738 0.349361 192.18C0.164074 192.685 0.051434 193.213 0.0148001 193.75C-0.0746026 195.009 0.249608 196.262 0.938301 197.321C1.62699 198.379 2.64263 199.185 3.83132 199.615Z" fill="#57B894" />
    <path d="M10.8396 234.268C10.3396 231.727 12.5062 229.474 14.6462 228.01C16.7862 226.546 19.2868 225.107 20.0169 222.623C21.0663 219.052 17.9405 215.781 15.5076 212.961C13.7025 210.868 12.1525 208.569 10.8898 206.112C10.3408 205.147 9.96688 204.093 9.78524 202.998C9.59341 201.415 10.103 199.84 10.6164 198.33C12.3265 193.3 14.155 188.313 16.1018 183.367" stroke="#3F3D56" strokeMiterlimit="10" />
    <path d="M4.07082 198.846C4.91741 199.153 5.82391 199.26 6.71887 199.157C7.61383 199.055 8.47279 198.747 9.22805 198.257C9.9833 197.767 10.6142 197.109 11.071 196.334C11.5279 195.559 11.7981 194.689 11.8605 193.793C11.9229 192.896 11.7758 191.997 11.4306 191.166C11.0855 190.336 10.5518 189.597 9.87162 189.008C9.19147 188.418 8.38343 187.995 7.5112 187.77C6.63897 187.545 5.72639 187.526 4.8454 187.714L4.99098 190.701L3.5746 188.141C2.1845 188.793 1.11059 189.968 0.588863 191.41C0.403579 191.915 0.29094 192.444 0.254304 192.98C0.164895 194.239 0.489104 195.493 1.1778 196.551C1.86649 197.61 2.88213 198.415 4.07082 198.846V198.846Z" stroke="#3F3D56" strokeMiterlimit="10" />
    <path d="M10.1288 182.335C10.461 181.42 11.0186 180.604 11.7503 179.961C12.4819 179.317 13.3639 178.868 14.3152 178.654L14.7941 181.495L15.682 178.512C16.9147 178.53 18.1098 178.939 19.0946 179.679C20.0794 180.419 20.803 181.453 21.161 182.63C21.5189 183.807 21.4926 185.068 21.0859 186.229C20.6793 187.391 19.9132 188.393 18.8984 189.092C17.8836 189.791 16.6726 190.15 15.4401 190.117C14.2077 190.084 13.0176 189.661 12.0417 188.909C11.0658 188.157 10.3546 187.115 10.0108 185.933C9.66693 184.752 9.70827 183.492 10.1288 182.335Z" fill="#57B894" />
    <path d="M10.4481 181.31C10.7804 180.395 11.338 179.578 12.0696 178.935C12.8012 178.292 13.6833 177.843 14.6345 177.629L15.1134 180.469L16.0013 177.486C17.2341 177.505 18.4291 177.913 19.4139 178.654C20.3988 179.394 21.1224 180.427 21.4803 181.605C21.8382 182.782 21.8119 184.042 21.4053 185.204C20.9986 186.365 20.2326 187.368 19.2178 188.067C18.203 188.765 16.9919 189.124 15.7594 189.091C14.527 189.058 13.3369 188.635 12.361 187.884C11.3851 187.132 10.6739 186.09 10.3301 184.908C9.98627 183.727 10.0276 182.466 10.4481 181.31V181.31Z" stroke="#3F3D56" strokeMiterlimit="10" />
    <path d="M14.4866 213.018C15.8292 213.504 17.304 213.48 18.63 212.95C19.9561 212.421 21.0405 211.423 21.6767 210.147C22.3128 208.871 22.4562 207.406 22.0795 206.031C21.7028 204.656 20.8324 203.468 19.6341 202.692L18.9519 204.985L18.4681 202.111C18.4633 202.109 18.4584 202.107 18.4533 202.105C17.7351 201.845 16.9726 201.728 16.2092 201.762C15.4458 201.795 14.6965 201.979 14.0041 202.301C13.3118 202.624 12.69 203.08 12.1742 203.643C11.6585 204.205 11.2589 204.864 10.9983 205.581C10.7377 206.298 10.6212 207.059 10.6555 207.821C10.6898 208.582 10.8742 209.33 11.1982 210.021C11.5221 210.711 11.9793 211.332 12.5435 211.846C13.1078 212.36 13.768 212.758 14.4866 213.018Z" fill="#57B894" />
    <path d="M14.7633 211.979C16.1059 212.465 17.5808 212.441 18.9068 211.912C20.2328 211.382 21.3173 210.384 21.9534 209.108C22.5896 207.832 22.733 206.367 22.3563 204.992C21.9796 203.618 21.1091 202.429 19.9109 201.654L19.2286 203.946L18.7448 201.072C18.7401 201.07 18.7351 201.068 18.73 201.067C18.0121 200.807 17.2498 200.69 16.4868 200.725C15.7238 200.759 14.975 200.942 14.2831 201.265C12.8858 201.917 11.8053 203.097 11.2793 204.544C10.7533 205.991 10.8248 207.587 11.4782 208.981C12.1316 210.376 13.3133 211.454 14.7633 211.979V211.979Z" stroke="#3F3D56" strokeMiterlimit="10" />
    <path d="M8.43139 222.657C8.66224 223.968 9.33773 225.16 10.3446 226.033C11.3514 226.906 12.6284 227.406 13.9613 227.451C15.2942 227.496 16.602 227.082 17.6654 226.279C18.7288 225.475 19.4831 224.332 19.8018 223.039C20.1205 221.747 19.9842 220.384 19.4158 219.18C18.8474 217.976 17.8814 217.004 16.6799 216.426C15.4783 215.849 14.1143 215.701 12.8166 216.008C11.5188 216.315 10.3663 217.058 9.55221 218.112L12.1436 222.004L8.60278 219.938C8.32824 220.818 8.26946 221.75 8.43139 222.657Z" fill="#57B894" />
    <path d="M8.6709 221.888C8.90174 223.199 9.57723 224.39 10.5841 225.263C11.5909 226.136 12.8679 226.637 14.2008 226.682C15.5337 226.726 16.8415 226.312 17.9049 225.509C18.9683 224.706 19.7226 223.562 20.0413 222.27C20.36 220.977 20.2237 219.615 19.6553 218.411C19.0869 217.207 18.1209 216.234 16.9194 215.657C15.7178 215.079 14.3538 214.931 13.0561 215.238C11.7583 215.545 10.6058 216.288 9.79171 217.342L12.3831 221.235L8.84228 219.169C8.56774 220.048 8.50896 220.981 8.6709 221.888V221.888Z" stroke="#3F3D56" strokeMiterlimit="10" />
    <path d="M204.574 144.801C208.567 144.801 211.805 140.619 211.805 135.462C211.805 130.304 208.567 126.123 204.574 126.123C200.58 126.123 197.343 130.304 197.343 135.462C197.343 140.619 200.58 144.801 204.574 144.801Z" fill="#2F2E41" />
    <path d="M243.919 145.012C247.913 145.012 251.15 140.83 251.15 135.673C251.15 130.515 247.913 126.334 243.919 126.334C239.925 126.334 236.688 130.515 236.688 135.673C236.688 140.83 239.925 145.012 243.919 145.012Z" fill="#2F2E41" />
    <path d="M238.389 163.266C238.389 167.485 232.486 170.907 225.203 170.907C217.921 170.907 212.017 167.485 212.017 163.266C212.017 159.611 216.445 156.555 222.362 155.808C223.304 155.684 224.253 155.623 225.203 155.625C226.795 155.62 228.383 155.791 229.938 156.135C234.88 157.234 238.389 160.014 238.389 163.266Z" fill="#2F2E41" />
    <path d="M206.275 142.678C210.269 142.678 213.506 138.496 213.506 133.339C213.506 128.181 210.269 124 206.275 124C202.281 124 199.044 128.181 199.044 133.339C199.044 138.496 202.281 142.678 206.275 142.678Z" stroke="#3F3D56" strokeMiterlimit="10" />
    <path d="M245.62 142.89C249.614 142.89 252.852 138.709 252.852 133.552C252.852 128.394 249.614 124.213 245.62 124.213C241.627 124.213 238.389 128.394 238.389 133.552C238.389 138.709 241.627 142.89 245.62 142.89Z" stroke="#3F3D56" strokeMiterlimit="10" />
    <path d="M226.905 168.784C234.187 168.784 240.091 165.363 240.091 161.143C240.091 156.923 234.187 153.502 226.905 153.502C219.622 153.502 213.719 156.923 213.719 161.143C213.719 165.363 219.622 168.784 226.905 168.784Z" stroke="#3F3D56" strokeMiterlimit="10" />
    <path d="M230.095 156.771C230.099 157.304 229.898 157.819 229.534 158.21C229.362 158.398 229.153 158.548 228.92 158.65C228.687 158.753 228.436 158.807 228.181 158.808H223.927C223.403 158.79 222.908 158.565 222.549 158.184C222.19 157.802 221.998 157.294 222.013 156.771C222.011 156.357 222.133 155.952 222.362 155.607C223.303 155.475 224.253 155.41 225.203 155.412C226.797 155.407 228.387 155.589 229.938 155.956C230.043 156.214 230.096 156.491 230.095 156.771Z" fill="white" />
    <path d="M206.275 132.915C207.45 132.915 208.402 131.965 208.402 130.792C208.402 129.62 207.45 128.67 206.275 128.67C205.101 128.67 204.148 129.62 204.148 130.792C204.148 131.965 205.101 132.915 206.275 132.915Z" fill="white" />
    <path d="M245.833 132.915C247.008 132.915 247.96 131.965 247.96 130.792C247.96 129.62 247.008 128.67 245.833 128.67C244.659 128.67 243.707 129.62 243.707 130.792C243.707 131.965 244.659 132.915 245.833 132.915Z" fill="white" />
    <path opacity="0.3" d="M247.96 152.866C249.135 152.866 250.087 151.916 250.087 150.744C250.087 149.571 249.135 148.621 247.96 148.621C246.785 148.621 245.833 149.571 245.833 150.744C245.833 151.916 246.785 152.866 247.96 152.866Z" fill="#1A75FF" />
    <path opacity="0.3" d="M196.066 152.866C197.241 152.866 198.193 151.916 198.193 150.744C198.193 149.571 197.241 148.621 196.066 148.621C194.892 148.621 193.94 149.571 193.94 150.744C193.94 151.916 194.892 152.866 196.066 152.866Z" fill="#1A75FF" />
  </g>
  <defs>
    <clipPath id="clip0">
      <rect width="457" height="248" fill="white" />
    </clipPath>
  </defs>
</svg>